<svg xmlns="http://www.w3.org/2000/svg" width="1082.667" height="609.333" viewBox="0 0 812 457" preserveAspectRatio="xMidYMid meet" xmlns:v="https://vecta.io/nano"><path d="M268 46.5v15.4l-4.7-2.1c-3.8-1.7-6.8-2.2-14-2.2-8.7-.1-9.3 0-13 3-7.8 6.3-11 14.1-12 28.9-1.2 18.8 6.6 37 17.4 40.6 4.9 1.6 12 .6 18.9-2.7l5.7-2.7 12.1 2.8 13.4 3.3c.9.3 1.2-10 1.2-49.7V31h-12.5H268v15.5zm-4.2 33.6l4.2 1.8v6c0 5.7-2.4 20.8-3.5 21.9-.2.3-2.5.6-5.1.6-3.8.1-5-.3-7-2.7-3.2-3.8-3.2-9.5.3-21.4 3-10.4 2.3-10 11.1-6.2zm169.2 1c0 39.7.3 50 1.3 49.7.6-.3 6.7-1.6 13.4-2.8l12.2-2.4 4.8 2.4c6.7 3.4 15 3.3 21.8-.2 6-3.1 7.5-4.6 11.3-11.9 2.2-4.2 3.2-8.1 4.2-15.9 2.1-17.3-1-28.8-10.2-37.7-7.8-7.6-15.1-8.4-26.7-2.8-4 1.9-7.5 3.5-7.7 3.5s-.4-7.2-.4-16V31h-12-12v50.1zm40.9-2.5c2.7 3.4 2.8 11.1.2 21.8-1.9 8.1-3 9.6-6.9 9.6-2.8 0-4.3-3-7.2-15.5-2.7-10.9-2.1-13.3 4.2-16.4 5.6-2.7 7.2-2.7 9.7.5zM98.1 57.1c-15.5 3-25.1 14.4-26.7 31.8-1.2 13.1 3.8 29.3 10.7 34.1 3.6 2.6 22 7 29.2 7 14.1 0 18.7-3.3 18.7-13.5 0-7.1-.4-7.5-9.4-7.5-8.4 0-17.5-2-20.4-4.5-2.5-2.2-2.7-2.9-2.7-10.2 0-12.4 2.9-15.2 18-17.4 5.5-.9 7.9-.9 8.9 0 1.1.9 1.9-.4 4.4-7l3.1-8.1-3.7-1.5c-8.9-3.7-21-5-30.1-3.2zm66.2.3c-5.8 1.9-10.5 5-14.8 9.7-12.6 14-11.9 40.7 1.4 53.7 13.8 13.4 40 13 52.5-.8 6.5-7.2 8.1-11.9 8.1-24-.1-19.5-5.3-29.8-18.3-36.2-5.6-2.8-7.7-3.3-15.6-3.5-5.7-.2-10.7.2-13.3 1.1zm19 19.8c2.7 1.4 3.7 5.1 3.7 14.4v8.4l-4.2 4.6c-6.5 7.1-7.5 7.3-11.4 2.8-4.2-4.9-5.4-8.9-5.4-18.5 0-6.9.3-7.9 2.6-10.2 3.5-3.6 9.5-4.2 14.7-1.5zm146.6-19.6c-2.6.9-6.8 3.3-9.5 5.3-12.6 9.5-16.8 33.3-8.8 49.8 6.5 13.4 22 19.4 44.5 17.1 10.7-1 13.9-2.3 15.6-5.9 1.5-3.1.4-14.5-1.4-14.2-.7.2-6.1.9-12.1 1.7-10.2 1.3-16 1.1-19.1-.8-1.2-.8-3.5-4.9-4.5-8.4l-.7-2.2h22.4 22.5l-3-14.8c-2.8-13.7-3.3-14.9-6.7-18.5-2-2.1-6.5-5.2-10-7-5.5-2.7-7.6-3.2-15.5-3.4-6.4-.2-10.5.2-13.7 1.3zm21 19.1c5.2 6.3 4.5 7.3-5.2 7.3-9.3 0-12.4-1.3-11.3-4.8.9-2.8 6.4-6.2 10.3-6.2 2.4 0 3.8.8 6.2 3.7zm270.6-19.8c-8.1 2-14.3 6.9-17.2 13.8-1.5 3.8-1.7 16-.3 19.8.5 1.4 2.6 4.7 4.5 7.2l3.5 4.5-2.6 2.1c-5.7 4.4-6.2 10-1.4 16.7l2 2.8-3.4 2.2c-4.8 2.9-9.3 8.3-10.1 11.9-1.4 6.5 3.6 15.5 10.8 19.4 3.8 2 5.5 2.2 20.2 2.2 13.8 0 17-.3 23.2-2.3 13.7-4.3 20.3-12.1 20.3-23.9 0-10.4-3.4-15.8-12-18.8-3.8-1.4-22.3-3.4-31.2-3.5-2.1 0-2.8-.5-2.8-2 0-1.1.3-2 .8-2 .4 0 4.9-.5 10.1-1 10.9-1.2 18.7-4.3 21.8-8.6 2.4-3.3 5.3-12.5 5.3-16.5 0-1.5 2.3-7 5.1-12.4 2.8-5.3 4.9-9.8 4.7-10-.1-.2-7.2-.8-15.6-1.4-16.8-1.2-31.1-1.3-35.7-.2zm16.9 19.7c1.2 8.7.8 11.2-1.9 13-3.3 2.2-4.9 1.4-8.5-4.3-2.2-3.5-2.9-5.5-2.5-7.3.8-3.1.6-2.9 5.2-4.5 6.3-2.3 7-2 7.7 3.1zm6.9 57c2.6.9 4.7 1.9 4.7 2.4 0 1.7-4.2 5.8-7.4 7.4-4.2 2-12.8 2.1-16.4.2-2.7-1.4-7.8-7.4-7-8.2.3-.2 2.2-1 4.4-1.8 5.3-2 16-2 21.7 0zM702 57.9c-6.3.9-11.1 4.2-15.6 10.7-3.4 5-3.9 6.3-3.9 11.4 0 8.4 3.1 12 16.6 19 12.7 6.6 16.1 9.2 15.3 11.4-.8 2-2.7 2-18.2 0-6.8-.9-12.6-1.3-13-1-.3.4-.6 4-.6 8.2-.1 6.7.2 7.8 2.1 9.4 4.5 3.6 27.6 4.5 37.9 1.5 18-5.2 22.5-28.1 7.6-38.8-2.6-1.8-9.1-5.5-14.4-8.2-5.4-2.6-9.8-5.1-9.8-5.4.1-2.5 1.9-3 8.5-2 3.9.5 8.7 1.4 10.8 2 3.1.8 4.3.7 6.3-.6 1.4-.9 2.8-2.4 3.1-3.3s1.6-4.3 2.8-7.5c1.6-4 2-5.9 1.2-6.2-2.5-.7-32.4-1.3-36.7-.6zM517 84.1c0 28.6.6 32.7 5.3 38.4 6.5 7.9 16.1 9.4 30.9 4.9l8.8-2.7 10.2 2.7 12.6 3.2 2.2.6V94.6 58h-12.9-13l-.3 22.9c-.3 21.5-.4 23.1-2.4 25.8-1.7 2.2-2.9 2.8-6 2.8-3.2 0-4.2-.5-6.1-3.4-3.7-5.5-4.3-9.6-4.3-29.4V58h-12.5H517v26.1zM386 94.5v9.5h15.8c20.3 0 20.4-.1 20-11.1l-.3-7.9h-17.7H386v9.5zM68.3 232.4c-17.7 4.5-32 19-36.8 37.3-2.7 10.4-1.1 21.1 4.2 27.3l2.6 3.1 8.7-17.8 8.7-17.9 20.6-13.3c11.4-7.4 20.4-13.8 20.1-14.2-.3-.5-2.4-1.9-4.6-3-5.1-2.6-16.4-3.4-23.5-1.5zm650.3.1c-4.6 1.6-7.6 4.2-6.1 5.3l7.5 5.1c3.6 2.4 12.8 8.8 20.5 14.2l14 9.7 7.5 16.7c4.1 9.2 7.7 16.8 8.1 17.1.4.2 2-2.2 3.6-5.3 2.6-5.3 2.8-6.8 2.8-16.8 0-10.6-.1-11.3-3.7-18.8-8.3-17.4-25.9-28.7-44.3-28.6-3.3 0-7.8.6-9.9 1.4zm7.9 38.7c-1.1.6-13.2 10-27 20.8-30.8 24.3-44.2 33.9-63.8 46-78.2 48.1-161 71.2-246.2 68.7-11.5-.4-27.1-1.3-34.5-2.2-66.3-7.5-130.7-30.6-192.4-69.2-17.7-11.1-27.6-18.1-51.5-36.7-26.5-20.7-28.8-22.3-34.2-23.5-6.2-1.5-6.7-1.4-9.4 1.4-5.5 5.4-2.9 9.2 17.3 25.8C161.3 365.1 241 404.2 322 418.4c31 5.5 38.1 6 77 6.1 38.9 0 48.3-.7 80-6.1 83.4-14.1 165-54.3 243.2-119.8 15-12.6 17.8-15.7 17.8-19.8 0-6.2-8-10.8-13.5-7.6z"/></svg>